<?xml version="1.0" encoding="UTF-8"?>
<svg id="_Слой_2" data-name="Слой 2" xmlns="http://www.w3.org/2000/svg" xmlns:xlink="http://www.w3.org/1999/xlink" viewBox="0 0 653.87 653.87">
  <defs>
    <style>
      .cls-1 {
        fill: url(#_Безымянный_градиент_822);
        opacity: .4;
      }

      .cls-2 {
        fill: #89040f;
      }

      .cls-3 {
        fill: #311017;
      }

      .cls-4 {
        fill: #6d7f46;
      }

      .cls-5 {
        opacity: .68;
      }

      .cls-6 {
        fill: #a50412;
      }

      .cls-7 {
        fill: #4e6b3a;
      }

      .cls-8 {
        fill: #3c1313;
      }

      .cls-9 {
        fill: #1b3105;
      }

      .cls-10 {
        fill: #3f241f;
      }
    </style>
    <radialGradient id="_Безымянный_градиент_822" data-name="Безымянный градиент 822" cx="374.26" cy="281.04" fx="527.16" fy="3.15" r="362.17" gradientUnits="userSpaceOnUse">
      <stop offset=".15" stop-color="#fff" stop-opacity="0"/>
      <stop offset=".89" stop-color="#000"/>
    </radialGradient>
  </defs>
  <polygon class="cls-5" points="478.57 181.19 457.87 112.82 389.5 133.52 368.8 65.15 300.43 85.86 232.06 106.56 163.7 127.26 95.33 147.96 116.03 216.33 47.66 237.03 68.37 305.4 0 326.1 20.7 394.47 41.4 462.84 62.11 531.2 130.47 510.5 151.18 578.87 171.88 647.23 240.25 626.53 219.54 558.16 287.91 537.46 308.61 605.83 376.98 585.13 397.68 653.49 466.05 632.79 445.35 564.42 513.71 543.72 582.08 523.02 561.38 454.65 629.74 433.95 609.04 365.58 588.34 297.22 567.64 228.85 546.93 160.48 478.57 181.19"/>
  <g>
    <polygon class="cls-9" points="502.69 132.65 481.99 64.29 413.62 84.99 392.92 16.62 324.55 37.33 256.19 58.03 187.82 78.73 119.45 99.43 140.15 167.8 71.79 188.5 92.49 256.87 24.12 277.57 44.83 345.94 65.53 414.31 133.89 393.6 154.6 461.97 222.96 441.27 291.33 420.57 312.03 488.93 380.4 468.23 448.77 447.53 517.13 426.82 585.5 406.12 653.87 385.42 633.16 317.05 612.46 248.69 591.76 180.32 571.06 111.95 502.69 132.65"/>
    <polygon class="cls-4" points="434.32 153.36 413.62 84.99 345.25 105.69 276.89 126.4 208.52 147.1 140.15 167.8 160.86 236.17 92.49 256.87 113.19 325.24 133.89 393.6 202.26 372.9 270.63 352.2 291.33 420.57 359.7 399.86 428.06 379.16 496.43 358.46 564.8 337.76 544.1 269.39 523.39 201.02 502.69 132.65 434.32 153.36"/>
    <g>
      <polygon class="cls-7" points="475.73 290.09 407.36 310.79 338.99 331.5 270.63 352.2 291.33 420.57 359.7 399.86 428.06 379.16 496.43 358.46 564.8 337.76 544.1 269.39 475.73 290.09"/>
      <polygon class="cls-7" points="181.56 304.53 113.19 325.24 133.89 393.6 202.26 372.9 270.63 352.2 249.93 283.83 181.56 304.53"/>
    </g>
    <polygon class="cls-10" points="434.32 153.36 365.96 174.06 297.59 194.76 229.22 215.46 249.93 283.83 270.63 352.2 338.99 331.5 407.36 310.79 475.73 290.09 544.1 269.39 523.39 201.02 502.69 132.65 434.32 153.36"/>
    <polygon class="cls-8" points="434.32 153.36 365.96 174.06 386.66 242.43 455.03 221.72 523.39 201.02 502.69 132.65 434.32 153.36"/>
    <polygon class="cls-3" points="455.03 221.72 386.66 242.43 318.29 263.13 249.93 283.83 270.63 352.2 338.99 331.5 407.36 310.79 475.73 290.09 544.1 269.39 523.39 201.02 455.03 221.72"/>
    <rect class="cls-2" x="74.35" y="402.42" width="71.43" height="71.43" transform="translate(-122.26 50.7) rotate(-16.85)"/>
    <g>
      <polygon class="cls-6" points="517.13 426.82 448.77 447.53 380.4 468.23 312.03 488.93 332.74 557.3 401.1 536.6 421.8 604.96 490.17 584.26 469.47 515.89 537.84 495.19 606.2 474.49 585.5 406.12 517.13 426.82"/>
      <polygon class="cls-6" points="222.96 441.27 154.6 461.97 175.3 530.34 196 598.7 264.37 578 243.67 509.63 312.03 488.93 291.33 420.57 222.96 441.27"/>
      <rect class="cls-6" x="74.35" y="402.42" width="71.43" height="71.43" transform="translate(-122.26 50.7) rotate(-16.85)"/>
    </g>
    <rect class="cls-2" x="231.78" y="429.38" width="71.43" height="71.43" transform="translate(-123.31 97.49) rotate(-16.85)"/>
    <rect class="cls-2" x="184.12" y="518.45" width="71.43" height="71.43" transform="translate(-151.17 87.5) rotate(-16.85)"/>
    <rect class="cls-2" x="389.22" y="456.35" width="71.43" height="71.43" transform="translate(-124.37 144.27) rotate(-16.85)"/>
    <rect class="cls-2" x="525.95" y="414.94" width="71.43" height="71.43" transform="translate(-106.5 182.12) rotate(-16.85)"/>
  </g>
  <polygon class="cls-1" points="502.69 132.65 481.99 64.29 413.62 84.99 392.92 16.62 324.55 37.33 256.19 58.03 187.82 78.73 119.45 99.43 140.15 167.8 71.79 188.5 92.49 256.87 24.12 277.57 44.83 345.94 65.53 414.31 86.23 482.67 154.6 461.97 175.3 530.34 196 598.7 264.37 578 243.67 509.63 312.03 488.93 332.74 557.3 401.1 536.6 421.8 604.96 490.17 584.26 469.47 515.89 537.84 495.19 606.2 474.49 585.5 406.12 653.87 385.42 633.16 317.05 612.46 248.69 591.76 180.32 571.06 111.95 502.69 132.65"/>
</svg>